<svg id="Layer_1" data-name="Layer 1" xmlns="http://www.w3.org/2000/svg" width="66.36mm" height="50.494" viewBox="0 0 188.11 37.88"><defs><style>.cls-2{fill:#2084c6}.cls-3{fill:#383838}.cls-4{fill:#fff}</style><clipPath id="clip-path"><path d="M18.49 18.62l-7.26-4.49 7.26-4.48a.84.84 0 0 1 .9 0l7.26 4.48-7.26 4.49a.84.84 0 0 1-.9 0M17.16 7.49L8.75 12.7a1.68 1.68 0 0 0 0 2.87l8.41 5.21a3.42 3.42 0 0 0 3.56 0l8.41-5.21a1.68 1.68 0 0 0 0-2.87l-8.41-5.21a3.42 3.42 0 0 0-3.56 0" fill="none"/></clipPath><clipPath id="clip-path-2"><path class="cls-2" d="M18.49 18.62l-7.26-4.49 7.26-4.48a.84.84 0 0 1 .9 0l7.26 4.48-7.26 4.49a.84.84 0 0 1-.9 0M17.16 7.49L8.75 12.7a1.68 1.68 0 0 0 0 2.87l8.41 5.21a3.42 3.42 0 0 0 3.56 0l8.41-5.21a1.68 1.68 0 0 0 0-2.87l-8.41-5.21a3.42 3.42 0 0 0-3.56 0"/></clipPath><clipPath id="clip-path-3"><path class="cls-2" transform="rotate(-86.5 18.944 14.134)" d="M11.12 2.46h15.64v23.35H11.12z"/></clipPath></defs><circle class="cls-3" cx="18.94" cy="18.94" r="18.94"/><path class="cls-4" d="M29.26 17.65a.51.51 0 0 1-.13.09L20.72 23a3.64 3.64 0 0 1-1.17.45l-.16.09a.84.84 0 0 1-.9 0l-.16-.09a3.64 3.64 0 0 1-1.17-.45l-8.41-5.26a.51.51 0 0 1-.13-.09 1.69 1.69 0 0 0 .13 2.79l8.41 5.21a3.42 3.42 0 0 0 3.56 0l8.41-5.21a1.69 1.69 0 0 0 .13-2.79"/><path class="cls-4" d="M29.26 22.4l-.13.09-8.41 5.2a3.42 3.42 0 0 1-1.17.45l-.16.1a.9.9 0 0 1-.9 0l-.16-.1a3.42 3.42 0 0 1-1.17-.45l-8.41-5.2-.13-.09a1.68 1.68 0 0 0 .13 2.78l8.41 5.21a3.42 3.42 0 0 0 3.56 0l8.41-5.21a1.68 1.68 0 0 0 .13-2.78"/><path class="cls-2" d="M18.49 18.62l-7.26-4.49 7.26-4.48a.84.84 0 0 1 .9 0l7.26 4.48-7.26 4.49a.84.84 0 0 1-.9 0M17.16 7.49L8.75 12.7a1.68 1.68 0 0 0 0 2.87l8.41 5.21a3.42 3.42 0 0 0 3.56 0l8.41-5.21a1.68 1.68 0 0 0 0-2.87l-8.41-5.21a3.42 3.42 0 0 0-3.56 0"/><g clip-path="url(#clip-path-2)"><path class="cls-2" transform="rotate(-86.5 18.944 14.134)" d="M11.12 2.46h15.64v23.35H11.12z"/><g clip-path="url(#clip-path-3)"><path class="cls-2" d="M6.81 20.55l24.26 1.48v.63H6.81v-2.11zm0-.55l24.26 1.49v.54L6.81 20.55V20z"/><path class="cls-2" d="M6.81 19.46l24.26 1.48v.55L6.81 20v-.54zm0-.55l24.26 1.49v.54L6.81 19.46v-.55z"/><path class="cls-2" d="M6.81 18.37l24.26 1.49v.54L6.81 18.91v-.54z"/><path class="cls-2" d="M6.81 17.83l24.26 1.48v.55L6.81 18.37v-.54z"/><path class="cls-2" d="M6.81 17.73l24.26 1.48v.1L6.81 17.83v-.1z"/><path class="cls-2" d="M6.81 17.63l24.26 1.49v.09L6.81 17.73v-.1z"/><path class="cls-2" d="M6.81 17.53l24.26 1.49v.1L6.81 17.63v-.1z"/><path class="cls-2" d="M6.81 17.44l24.26 1.48v.1L6.81 17.53v-.09z"/><path class="cls-2" d="M6.81 17.34l24.26 1.48v.1L6.81 17.44v-.1zm0-.1l24.26 1.49v.09L6.81 17.34v-.1z"/><path class="cls-2" d="M6.81 17.14l24.26 1.49v.1L6.81 17.24v-.1z"/><path class="cls-2" d="M6.81 17.05l24.26 1.48v.1L6.81 17.14v-.09z"/><path class="cls-2" d="M6.81 16.95l24.26 1.48v.1L6.81 17.05v-.1z"/><path class="cls-2" d="M6.81 16.85l24.26 1.49v.09L6.81 16.95v-.1z"/><path class="cls-2" d="M6.81 16.75l24.26 1.49v.1L6.81 16.85v-.1z"/><path class="cls-2" d="M6.81 16.66l24.26 1.48v.1L6.81 16.75v-.09z"/><path class="cls-2" d="M6.81 16.56l24.26 1.48v.1L6.81 16.66v-.1z"/><path class="cls-2" d="M6.81 16.46l24.26 1.49v.09L6.81 16.56v-.1z"/><path class="cls-2" d="M6.81 16.36l24.26 1.49v.1L6.81 16.46v-.1z"/><path class="cls-2" d="M6.81 16.27l24.26 1.48v.1L6.81 16.36v-.09z"/><path class="cls-2" d="M6.81 16.17l24.26 1.48v.1L6.81 16.27v-.1z"/><path class="cls-2" d="M6.81 16.07l24.26 1.49v.09L6.81 16.17v-.1z"/><path class="cls-2" d="M6.81 15.97l24.26 1.49v.1L6.81 16.07v-.1z"/><path class="cls-2" d="M6.81 15.88l24.26 1.48v.1L6.81 15.97v-.09z"/><path class="cls-2" d="M6.81 15.78l24.26 1.48v.1L6.81 15.88v-.1z"/><path class="cls-2" d="M6.81 15.68l24.26 1.49v.09L6.81 15.78v-.1z"/><path class="cls-2" d="M6.81 15.58l24.26 1.49v.1L6.81 15.68v-.1z"/><path class="cls-2" d="M6.81 15.49l24.26 1.48v.1L6.81 15.58v-.09z"/><path class="cls-2" d="M6.81 15.39l24.26 1.48v.1L6.81 15.49v-.1zm0-.1l24.26 1.49v.09L6.81 15.39v-.1zm0-.1l24.26 1.49v.1L6.81 15.29v-.1z"/><path class="cls-2" d="M6.81 15.1l24.26 1.48v.1L6.81 15.19v-.09z"/><path class="cls-2" d="M6.81 15l24.26 1.48v.1L6.81 15.1V15z"/><path class="cls-2" d="M6.81 14.9l24.26 1.49v.09L6.81 15v-.1z"/><path class="cls-2" d="M6.81 14.8l24.26 1.49v.1L6.81 14.9v-.1z"/><path class="cls-2" d="M6.81 14.71l24.26 1.48v.1L6.81 14.8v-.09z"/><path class="cls-2" d="M6.81 14.61l24.26 1.48v.1L6.81 14.71v-.1z"/><path class="cls-2" d="M6.81 14.51l24.26 1.48v.1L6.81 14.61v-.1z"/><path class="cls-2" d="M6.81 14.41l24.26 1.49v.09L6.81 14.51v-.1z"/><path class="cls-2" d="M6.81 14.31l24.26 1.49v.1L6.81 14.41v-.1z"/><path class="cls-2" d="M6.81 14.22l24.26 1.48v.1L6.81 14.31v-.09zm0-.1l24.26 1.49v.09L6.81 14.22v-.1zm0-.1l24.26 1.49v.1L6.81 14.12v-.1zm0-.09l24.26 1.48v.1L6.81 14.02v-.09zm0-.1l24.26 1.48v.1L6.81 13.93v-.1zm0-.1l24.26 1.48v.1L6.81 13.83v-.1zm0-.1l24.26 1.49v.09L6.81 13.73v-.1zm0-.09l24.26 1.48v.1L6.81 13.63v-.09zm0-.1l24.26 1.48v.1L6.81 13.54v-.1zm0-.1l24.26 1.49v.09L6.81 13.44v-.1zm0-.09l24.26 1.48v.1L6.81 13.34v-.09zm0-.1l24.26 1.49v.09L6.81 13.25v-.1zm0-.09l24.26 1.48v.1L6.81 13.15v-.09zm0-.1l24.26 1.49v.09L6.81 13.06v-.1zm0-.09l24.26 1.48v.1L6.81 12.96v-.09zm0-.1l24.26 1.49v.09L6.81 12.87v-.1zm0-.09l24.26 1.48v.1L6.81 12.77v-.09zm0-.1l24.26 1.49v.09L6.81 12.68v-.1zm0-.1l24.26 1.49v.1L6.81 12.58v-.1zm0-.09l24.26 1.49v.09L6.81 12.48v-.09zm0-.05l24.26 1.49v.05L6.81 12.39v-.05zm0-.05l24.26 1.49v.05L6.81 12.34v-.05zm0-.05l24.26 1.49v.05L6.81 12.29v-.05z"/><path class="cls-2" d="M6.81 12.2l24.26 1.48v.05L6.81 12.24v-.04z"/><path class="cls-2" d="M6.81 12.15l24.26 1.48v.05L6.81 12.2v-.05z"/><path class="cls-2" d="M6.81 12.1l24.26 1.49v.04L6.81 12.15v-.05z"/><path class="cls-2" d="M6.81 12.05l24.26 1.49v.05L6.81 12.1v-.05z"/><path class="cls-2" d="M6.81 12l24.26 1.49v.05L6.81 12.05V12z"/><path class="cls-2" d="M6.81 11.95l24.26 1.49v.05L6.81 12v-.05z"/><path class="cls-2" d="M6.81 11.91l24.26 1.48v.05L6.81 11.95v-.04z"/><path class="cls-2" d="M6.81 11.86l24.26 1.48v.05L6.81 11.91v-.05z"/><path class="cls-2" d="M6.81 11.81l24.26 1.48v.05L6.81 11.86v-.05z"/><path class="cls-2" d="M6.81 11.76l24.26 1.49v.04L6.81 11.81v-.05z"/><path class="cls-2" d="M6.81 11.71l24.26 1.49v.05L6.81 11.76v-.05z"/><path class="cls-2" d="M6.81 11.66l24.26 1.49v.05L6.81 11.71v-.05z"/><path class="cls-2" d="M6.81 11.62l24.26 1.48v.05L6.81 11.66v-.04z"/><path class="cls-2" d="M6.81 11.57l24.26 1.48v.05L6.81 11.62v-.05z"/><path class="cls-2" d="M6.81 11.52L31.07 13v.05L6.81 11.57v-.05z"/><path class="cls-2" d="M6.81 11.47l24.26 1.49V13L6.81 11.52v-.05z"/><path class="cls-2" d="M6.81 11.42l24.26 1.49v.05L6.81 11.47v-.05z"/><path class="cls-2" d="M6.81 11.37l24.26 1.49v.05L6.81 11.42v-.05z"/><path class="cls-2" d="M6.81 11.32l24.26 1.49v.05L6.81 11.37v-.05z"/><path class="cls-2" d="M6.81 11.28l24.26 1.48v.05L6.81 11.32v-.04z"/><path class="cls-2" d="M6.81 11.23l24.26 1.48v.05L6.81 11.28v-.05z"/><path class="cls-2" d="M6.81 11.18l24.26 1.48v.05L6.81 11.23v-.05z"/><path class="cls-2" d="M6.81 11.13l24.26 1.49v.04L6.81 11.18v-.05z"/><path class="cls-2" d="M6.81 11.08l24.26 1.49v.05L6.81 11.13v-.05z"/><path class="cls-2" d="M6.81 11.03l24.26 1.49v.05L6.81 11.08v-.05z"/><path class="cls-2" d="M6.81 10.98l24.26 1.49v.05L6.81 11.03v-.05z"/><path class="cls-2" d="M6.81 10.94l24.26 1.48v.05L6.81 10.98v-.04z"/><path class="cls-2" d="M6.81 10.89l24.26 1.48v.05L6.81 10.94v-.05z"/><path class="cls-2" d="M6.81 10.84l24.26 1.48v.05L6.81 10.89v-.05zm0-.05l24.26 1.49v.04L6.81 10.84v-.05z"/><path class="cls-2" d="M6.81 10.74l24.26 1.49v.05L6.81 10.79v-.05z"/><path class="cls-2" d="M6.81 10.69l24.26 1.49v.05L6.81 10.74v-.05z"/><path class="cls-2" d="M6.81 10.65l24.26 1.48v.05L6.81 10.69v-.04z"/><path class="cls-2" d="M6.81 10.6l24.26 1.48v.05L6.81 10.65v-.05z"/><path class="cls-2" d="M6.81 10.55l24.26 1.48v.05L6.81 10.6v-.05z"/><path class="cls-2" d="M6.81 10.5l24.26 1.49v.04L6.81 10.55v-.05z"/><path class="cls-2" d="M6.81 10.45l24.26 1.49v.05L6.81 10.5v-.05z"/><path class="cls-2" d="M6.81 10.4l24.26 1.49v.05L6.81 10.45v-.05z"/><path class="cls-2" d="M6.81 10.36l24.26 1.48v.05L6.81 10.4v-.04z"/><path class="cls-2" d="M6.81 10.31l24.26 1.48v.05L6.81 10.36v-.05z"/><path class="cls-2" d="M6.81 10.26l24.26 1.48v.05L6.81 10.31v-.05z"/><path class="cls-2" d="M6.81 10.21l24.26 1.49v.04L6.81 10.26v-.05z"/><path class="cls-2" d="M6.81 10.16l24.26 1.49v.05L6.81 10.21v-.05z"/><path class="cls-2" d="M6.81 10.11l24.26 1.49v.05L6.81 10.16v-.05z"/><path class="cls-2" d="M6.81 10.06l24.26 1.49v.05L6.81 10.11v-.05z"/><path class="cls-2" d="M6.81 10.02l24.26 1.48v.05L6.81 10.06v-.04z"/><path class="cls-2" d="M6.81 9.97l24.26 1.48v.05L6.81 10.02v-.05z"/><path class="cls-2" d="M6.81 9.92l24.26 1.48v.05L6.81 9.97v-.05zm0-.05l24.26 1.49v.04L6.81 9.92v-.05z"/><path class="cls-2" d="M6.81 9.82l24.26 1.49v.05L6.81 9.87v-.05z"/><path class="cls-2" d="M6.81 9.77l24.26 1.49v.05L6.81 9.82v-.05z"/><path class="cls-2" d="M6.81 9.73l24.26 1.48v.05L6.81 9.77v-.04z"/><path class="cls-2" d="M6.81 9.68l24.26 1.48v.05L6.81 9.73v-.05z"/><path class="cls-2" d="M6.81 9.63l24.26 1.48v.05L6.81 9.68v-.05z"/><path class="cls-2" d="M6.81 9.58l24.26 1.49v.04L6.81 9.63v-.05z"/><path class="cls-2" d="M6.81 9.53l24.26 1.49v.05L6.81 9.58v-.05z"/><path class="cls-2" d="M6.81 9.48l24.26 1.49v.05L6.81 9.53v-.05z"/><path class="cls-2" d="M6.81 9.44l24.26 1.48v.05L6.81 9.48v-.04z"/><path class="cls-2" d="M6.81 9.39l24.26 1.48v.05L6.81 9.44v-.05z"/><path class="cls-2" d="M6.81 9.34l24.26 1.48v.05L6.81 9.39v-.05zm0-.05l24.26 1.49v.04L6.81 9.34v-.05z"/><path class="cls-2" d="M6.81 9.24l24.26 1.49v.05L6.81 9.29v-.05z"/><path class="cls-2" d="M6.81 9.19l24.26 1.49v.05L6.81 9.24v-.05z"/><path class="cls-2" d="M6.81 9.14l24.26 1.49v.05L6.81 9.19v-.05z"/><path class="cls-2" d="M6.81 9.1l24.26 1.48v.05L6.81 9.14V9.1z"/><path class="cls-2" d="M6.81 9.05l24.26 1.48v.05L6.81 9.1v-.05z"/><path class="cls-2" d="M6.81 9l24.26 1.48v.05L6.81 9.05V9zm0-.05l24.26 1.49v.04L6.81 9v-.05z"/><path class="cls-2" d="M6.81 8.9l24.26 1.49v.05L6.81 8.95V8.9z"/><path class="cls-2" d="M6.81 8.85l24.26 1.49v.05L6.81 8.9v-.05z"/><path class="cls-2" d="M6.81 8.8l24.26 1.49v.05L6.81 8.85V8.8z"/><path class="cls-2" d="M6.81 8.76l24.26 1.48v.05L6.81 8.8v-.04z"/><path class="cls-2" d="M6.81 8.71l24.26 1.48v.05L6.81 8.76v-.05z"/><path class="cls-2" d="M6.81 8.66l24.26 1.48v.05L6.81 8.71v-.05zm0-.05l24.26 1.49v.04L6.81 8.66v-.05z"/><path class="cls-2" d="M6.81 8.56l24.26 1.49v.05L6.81 8.61v-.05z"/><path class="cls-2" d="M6.81 8.52L31.07 10v.05L6.81 8.56v-.04z"/><path class="cls-2" d="M6.81 8.47l24.26 1.48V10L6.81 8.52v-.05z"/><path class="cls-2" d="M6.81 8.42L31.07 9.9v.05L6.81 8.47v-.05zm0-.05l24.26 1.49v.04L6.81 8.42v-.05z"/><path class="cls-2" d="M6.81 8.32l24.26 1.49v.05L6.81 8.37v-.05z"/><path class="cls-2" d="M6.81 8.27l24.26 1.49v.05L6.81 8.32v-.05z"/><path class="cls-2" d="M6.81 8.22l24.26 1.49v.05L6.81 8.27v-.05z"/><path class="cls-2" d="M6.81 8.18l24.26 1.48v.05L6.81 8.22v-.04z"/><path class="cls-2" d="M6.81 8.13l24.26 1.48v.05L6.81 8.18v-.05z"/><path class="cls-2" d="M6.81 8.08l24.26 1.48v.05L6.81 8.13v-.05zm0-.05l24.26 1.49v.04L6.81 8.08v-.05z"/><path class="cls-2" d="M6.81 7.98l24.26 1.49v.05L6.81 8.03v-.05z"/><path class="cls-2" d="M6.81 7.93l24.26 1.49v.05L6.81 7.98v-.05z"/><path class="cls-2" d="M6.81 7.88l24.26 1.49v.05L6.81 7.93v-.05z"/><path class="cls-2" d="M6.81 7.84l24.26 1.48v.05L6.81 7.88v-.04z"/><path class="cls-2" d="M6.81 7.79l24.26 1.48v.05L6.81 7.84v-.05z"/><path class="cls-2" d="M6.81 7.74l24.26 1.48v.05L6.81 7.79v-.05zm0-.05l24.26 1.49v.04L6.81 7.74v-.05z"/><path class="cls-2" d="M6.81 7.64l24.26 1.49v.05L6.81 7.69v-.05z"/><path class="cls-2" d="M6.81 7.59l24.26 1.49v.05L6.81 7.64v-.05z"/><path class="cls-2" d="M6.81 7.55l24.26 1.48v.05L6.81 7.59v-.04z"/><path class="cls-2" d="M6.81 7.5l24.26 1.48v.05L6.81 7.55V7.5z"/><path class="cls-2" d="M6.81 7.45l24.26 1.48v.05L6.81 7.5v-.05z"/><path class="cls-2" d="M6.81 7.4l24.26 1.49v.04L6.81 7.45V7.4z"/><path class="cls-2" d="M6.81 7.35l24.26 1.49v.05L6.81 7.4v-.05z"/><path class="cls-2" d="M6.81 7.3l24.26 1.49v.05L6.81 7.35V7.3z"/><path class="cls-2" d="M6.81 7.25l24.26 1.49v.05L6.81 7.3v-.05z"/><path class="cls-2" d="M6.81 7.21l24.26 1.48v.05L6.81 7.25v-.04z"/><path class="cls-2" d="M6.81 7.16l24.26 1.48v.05L6.81 7.21v-.05zm0-.05L31.07 8.6v.04L6.81 7.16v-.05z"/><path class="cls-2" d="M6.81 7.06l24.26 1.49v.05L6.81 7.11v-.05z"/><path class="cls-2" d="M6.81 7.01L31.07 8.5v.05L6.81 7.06v-.05z"/><path class="cls-2" d="M6.81 6.96l24.26 1.49v.05L6.81 7.01v-.05z"/><path class="cls-2" d="M6.81 6.92L31.07 8.4v.05L6.81 6.96v-.04z"/><path class="cls-2" d="M6.81 6.87l24.26 1.48v.05L6.81 6.92v-.05z"/><path class="cls-2" d="M6.81 6.82L31.07 8.3v.05L6.81 6.87v-.05zm0-.05l24.26 1.49v.04L6.81 6.82v-.05zm0-.05l24.26 1.49v.05L6.81 6.77v-.05z"/><path class="cls-2" d="M6.81 6.67l24.26 1.49v.05L6.81 6.72v-.05z"/><path class="cls-2" d="M6.81 6.63l24.26 1.48v.05L6.81 6.67v-.04z"/><path class="cls-2" d="M6.81 6.58l24.26 1.48v.05L6.81 6.63v-.05z"/><path class="cls-2" d="M6.81 6.53l24.26 1.48v.05L6.81 6.58v-.05z"/><path class="cls-2" d="M6.81 6.48l24.26 1.48v.05L6.81 6.53v-.05zm0-.05l24.26 1.49v.04L6.81 6.48v-.05zm0-.05l24.26 1.49v.05L6.81 6.43v-.05zm0-.05l24.26 1.49v.05L6.81 6.38v-.05zm0-.04l24.26 1.48v.05L6.81 6.33v-.04zm0-.05l24.26 1.48v.05L6.81 6.29v-.05z"/><path class="cls-2" d="M31.07 7.72L6.81 6.24v-.63h24.26v2.11z"/></g></g><path class="cls-2" d="M53.84 15.19c-.65 0-1.08.22-1.08.71 0 1.92 6.82.78 6.82 5.5 0 2.78-2.46 4.1-5.39 4.1a10.62 10.62 0 0 1-6.28-2.07l1.45-2.95a9 9 0 0 0 4.87 2c.82 0 1.34-.28 1.34-.88 0-2-6.82-.72-6.82-5.33 0-2.52 2.14-4.12 5.4-4.12a10.58 10.58 0 0 1 5.47 1.51l-1.44 3a10.88 10.88 0 0 0-4.34-1.47zm17.65-2.87v3.09h-3.8v10h-3.9v-10H60v-3.09zm8.56 10.98h-5.28L74 25.39h-4l5.57-13.07h4L85 25.39h-4.19zm-1-2.84l-1.56-4.27-1.61 4.27zm12.82-5.03a3.17 3.17 0 0 0-3.12 3.36 3.18 3.18 0 0 0 3.12 3.37A4.76 4.76 0 0 0 95 20.65L97.22 23a7.9 7.9 0 0 1-5.54 2.52 6.64 6.64 0 0 1-6.9-6.74c0-3.8 3-6.62 7-6.62a7.69 7.69 0 0 1 5.41 2.32L95 17.16a4.26 4.26 0 0 0-3.13-1.73zm14.91 9.96l-3-4.78-1.47 1.64v3.14h-3.92V12.32h3.88v5l4.38-5h4.47l-4.73 5.31 5 7.76z"/><path class="cls-3" d="M124 15.62a2.9 2.9 0 0 1-2.22 2.81 3.24 3.24 0 0 1 2.63 3.3c0 2.24-2 3.66-5.14 3.66h-6.7V12.32H119c3 0 5 1.28 5 3.3zm-4 .69c0-.67-.48-1.08-1.25-1.08h-2.35v2.21h2.35a1.11 1.11 0 0 0 1.25-1.13zm.37 4.94c0-.71-.63-1.16-1.62-1.14h-2.35v2.37h2.35c1.02.02 1.65-.48 1.65-1.23zm9.5-8.93v13.07H126V12.32zm6.13 0v9.82h5.48v3.25h-9.36V12.32zm10.65 0v9.82h5.48v3.25h-9.36V12.32zm10.7 0v13.07h-3.88V12.32zm5.51 0l5.54 7.31v-7.31h3.6v13.07h-3.3l-5.54-7.27v7.27h-3.56V12.32zm19.82 6.3H186v5.26a11 11 0 0 1-5.59 1.68 6.68 6.68 0 0 1-7-6.7c0-3.82 3.07-6.66 7.29-6.66a8.77 8.77 0 0 1 5.52 2L184 16.85a5.12 5.12 0 0 0-3.34-1.42 3.29 3.29 0 0 0-3.3 3.43 3.3 3.3 0 0 0 3.34 3.45 5.33 5.33 0 0 0 2-.5z"/></svg>