<svg xmlns="http://www.w3.org/2000/svg" viewBox="0 0 600 320.1"><path d="M110.6 267.1c-5.1 2.9-10.9 4.3-16.7 4.2-4.9.1-9.8-.9-14.2-2.9-4.3-1.9-8.1-4.7-11.3-8.2-3.3-3.6-5.8-7.7-7.5-12.2-1.8-4.8-2.8-9.8-2.7-14.9v-.4c0-5.1.9-10.1 2.7-14.9 1.7-4.5 4.1-8.6 7.4-12.1 3.1-3.4 6.9-6.2 11.1-8.1 4.3-2 9-3 13.8-3 6.7 0 12.3 1.5 16.9 4.4 4.6 3 8.9 6.5 12.7 10.5l9.6-10.3c-2.3-2.4-4.8-4.7-7.4-6.8-5.5-4.5-12.1-7.7-19.1-9.3-4.1-.9-8.4-1.4-12.6-1.3-6.8-.1-13.6 1.3-19.9 4.1-6 2.6-11.4 6.5-15.8 11.2-9.2 9.8-14.3 22.7-14.2 36.1v.4c0 6.7 1.3 13.3 3.8 19.5 4.8 12.2 14.3 22 26.3 27.3 6.3 2.8 13 4.2 19.9 4.1 9.2 0 16.9-1.8 23.1-5.3 6.3-3.6 11.9-8.2 16.7-13.7l-9.2-8.7c-4.1 4-8.5 7.5-13.4 10.3m115.5-33.6c0 5-.9 10-2.6 14.6-1.7 4.4-4.2 8.5-7.4 12s-7 6.2-11.3 8.2c-4.6 2-9.5 3.1-14.5 3-4.9.1-9.8-1-14.3-3-4.3-1.9-8.2-4.7-11.4-8.2-3.3-3.5-5.9-7.6-7.6-12.1-1.8-4.8-2.8-9.8-2.7-14.9v-.4c0-5 .9-10 2.6-14.7 1.6-4.4 4.1-8.5 7.3-12.1 3.1-3.5 6.9-6.3 11.2-8.2 9.2-4.1 19.7-4.1 28.9 0 4.3 2 8.2 4.8 11.5 8.3s5.9 7.7 7.6 12.2c1.8 4.8 2.8 9.8 2.7 14.9v.4zm.6-36.5c-4.6-4.7-10.1-8.4-16.1-11-13-5.4-27.7-5.4-40.7 0-12.2 5.2-21.8 15.1-26.7 27.5-2.5 6.3-3.8 13-3.8 19.8v.4c0 6.7 1.2 13.4 3.8 19.7 2.4 6 6 11.5 10.6 16.1 4.6 4.7 10 8.4 16 11 6.4 2.8 13.2 4.2 20.2 4.1 7 .1 13.9-1.3 20.4-4.1 6.1-2.6 11.6-6.4 16.2-11.1 4.5-4.7 8.2-10.3 10.6-16.3 2.6-6.3 3.9-13 3.8-19.8v-.4c0-6.8-1.2-13.4-3.8-19.7-2.4-6.2-6-11.6-10.5-16.2zM17 249.9c-8.9-.1-16.2 7.1-16.3 16-.1 8.9 7.1 16.2 16 16.3s16.2-7.1 16.3-16v-.1c0-8.9-7.1-16.1-16-16.2m259.7 0c-8.9-.1-16.2 7.1-16.3 16-.1 8.9 7.1 16.2 16 16.3 8.9.1 16.2-7.1 16.3-16v-.1c.1-8.9-7.1-16.1-16-16.2m206.8 32.3l-26.4-41.6-10 10.6v31h-28.6V143.5h28.7v73.9l33.6-37H515l-38.5 40.1 39.8 61.8-32.8-.1zM440.1.1c-87.7 0-158.9 71.6-158.9 160-.1 35.5 11.6 69.9 33.3 98-2.4-6.5-3.6-13.4-3.4-20.3v-57.1h28.5v50.8c0 16.3 2.8 24.1 16 24.1 12.7 0 16.5-8.1 16.5-24v-50.9h28.1v57.1c0 30.3-17.4 44.4-44.8 44.4-9 0-16.8-1.6-23.3-4.8 29.3 27.5 67.9 42.8 108.1 42.8 87.7 0 158.8-71.7 158.8-160.1S527.9 0 440.1.1z" fill-rule="evenodd" clip-rule="evenodd" fill="#fff"/></svg>