<svg xmlns="http://www.w3.org/2000/svg" viewBox="0 0 600 566"><path d="M30.4 443.2C14.1 443.2 1 456.3 1 472.5s13.1 29.4 29.4 29.4c16.2 0 29.4-13.1 29.4-29.4-.1-16.2-13.2-29.3-29.4-29.3m364.9 55.7l-46.6-73.5-17.6 18.8V499h-50.6V253.6h50.6v130.7l59.2-65.5h60.6L383 389.7l70.2 109.2h-57.9zM318.7 0C163.9 0 38.4 126.7 38.4 283c-.1 62.7 20.5 123.6 58.7 173.3-4-10.2-6.1-22.2-6.1-36v-101h50.3V409c0 28.8 4.9 42.6 28.2 42.6 22.4 0 29-14.4 29-42.4v-89.9H248v101c0 53.5-30.6 78.4-79 78.4-15.8 0-29.6-2.8-41.1-8.5C179.6 539 247.8 566 318.7 566 473.5 566 599 439.3 599 283S473.5 0 318.7 0z" fill-rule="evenodd" clip-rule="evenodd" fill="#fff"/></svg>