<svg xmlns="http://www.w3.org/2000/svg" viewBox="0 0 600 292.8"><path d="M146.8 165.1c-3.6 0-7.1.4-10.6 1.4-3 .9-5.9 2.1-8.5 3.8-2.5 1.6-4.8 3.5-6.8 5.7s-3.8 4.5-5.4 6.9c-2.4-5.1-6.1-9.5-10.7-12.8-4.7-3.4-10.7-5.1-17.9-5.1-3.4-.1-6.8.4-10 1.4-2.7.9-5.4 2.1-7.7 3.7s-4.3 3.4-6.1 5.5c-1.8 2.1-3.4 4.2-4.9 6.4v-15H45v89.9h13.3v-51.2c0-3.9.6-7.7 1.9-11.3 1.2-3.3 3-6.3 5.2-8.9 2.2-2.5 4.8-4.5 7.8-5.9 3.1-1.4 6.4-2.1 9.8-2.1 7.1 0 12.7 2.3 16.8 7 4.1 4.7 6.1 11.2 6.1 19.7v52.7H119v-51.7c-.1-4 .6-8 2-11.8 1.2-3.2 3-6.2 5.3-8.8 2.2-2.3 4.9-4.2 7.8-5.4 3-1.2 6.2-1.8 9.4-1.8 7.2 0 12.9 2.3 16.9 7s6.1 11.3 6.1 20v52.5h13.2v-55.6c0-11.2-2.9-20.1-8.8-26.5-5.6-6.4-13.7-9.7-24.1-9.7m60.3 41.4c.4-4.1 1.5-8.1 3.2-11.9 1.5-3.5 3.7-6.8 6.3-9.6 2.5-2.7 5.5-4.8 8.8-6.3 3.3-1.5 7-2.3 10.6-2.3 4-.1 8 .7 11.6 2.4 3.3 1.5 6.2 3.8 8.6 6.6 2.4 2.9 4.3 6.1 5.6 9.6 1.4 3.7 2.3 7.6 2.6 11.5h-57.3zM267 179c-3.6-4.3-8-7.8-13.1-10.2-11-5-23.6-5-34.6-.1-5.1 2.4-9.7 5.8-13.5 10-3.9 4.4-6.9 9.5-8.9 15-2.1 5.9-3.2 12.1-3.2 18.3-.1 6.5 1.1 13 3.5 19.1 2.2 5.5 5.4 10.6 9.6 14.9 4 4.1 8.8 7.4 14.1 9.6 5.4 2.3 11.3 3.4 17.2 3.4 8.5 0 15.6-1.5 21.3-4.6 5.8-3.1 11-7.3 15.3-12.2l-8.2-7.5c-3.5 3.7-7.6 6.8-12.1 9.2-4.9 2.4-10.4 3.6-15.9 3.5-3.8 0-7.6-.7-11.2-2-7.3-2.7-13.3-8.2-16.7-15.2-1.9-4-3.1-8.3-3.5-12.7h70.5c.1-.9.2-1.8.2-2.7v-2c0-6.3-.9-12.6-2.8-18.6-1.7-5.6-4.4-10.7-8-15.2zM15.6 225.7c-8.1.2-14.6 7-14.4 15.1.2 7.9 6.5 14.2 14.4 14.4 8.1-.2 14.6-7 14.4-15.1-.2-7.9-6.5-14.2-14.4-14.4m291.8 0c-8.2-.1-14.8 6.5-14.9 14.6-.1 8.2 6.5 14.8 14.6 14.9 8.2.1 14.8-6.5 14.9-14.6v-.1c0-8.2-6.5-14.8-14.6-14.8m186.4 32.4L469.7 220l-9.1 9.7V258h-26.2V131.2h26.1v67.6l30.6-33.9h31.3l-35.1 36.7 36.3 56.5h-29.8zM454.1 0c-80 0-144.9 65.5-144.9 146.4-.1 32.4 10.6 64 30.4 89.7-2.2-6-3.3-12.3-3.1-18.6v-52.2h26v46.4c0 14.9 2.5 22 14.6 22 11.5 0 15-7.4 15-21.9v-46.5h25.6v52.3c0 27.7-15.8 40.6-40.9 40.6-8.2 0-15.3-1.5-21.2-4.4 26.7 25.1 61.9 39.1 98.6 39.1 80 0 144.8-65.5 144.8-146.4S534.1 0 454.1 0z" fill-rule="evenodd" clip-rule="evenodd" fill="#fff"/></svg>