<svg xmlns="http://www.w3.org/2000/svg" viewBox="0 0 600 282.9"><path d="M114.6 207.2c0 4.4-.8 8.7-2.3 12.8-1.5 3.9-3.7 7.4-6.5 10.5-2.8 3-6.2 5.4-10 7.1-4 1.8-8.4 2.7-12.8 2.6-4.3 0-8.7-.9-12.6-2.7-3.8-1.7-7.2-4.1-10-7.1-2.9-3.1-5.1-6.6-6.6-10.5-1.6-4.1-2.4-8.6-2.4-13v-.3c0-4.4.8-8.8 2.3-12.9 1.5-3.9 3.6-7.5 6.4-10.6 2.8-3 6.1-5.5 9.9-7.1 4-1.8 8.4-2.7 12.8-2.7s8.7.9 12.6 2.7c3.8 1.7 7.3 4.2 10.1 7.2 2.9 3.1 5.2 6.7 6.7 10.6 1.6 4.1 2.4 8.6 2.4 13v.4zm.5-32c-8.5-8.5-20-13.3-32.1-13.2-6.2-.1-12.3 1.1-18 3.6-10.7 4.6-19.2 13.2-23.5 24-2.2 5.5-3.4 11.4-3.3 17.3v.3c0 5.9 1.1 11.7 3.3 17.2 2.1 5.3 5.3 10.1 9.3 14.1 4 4.1 8.8 7.4 14.1 9.6 5.6 2.4 11.7 3.7 17.8 3.6 6.2.1 12.3-1.2 17.9-3.6 5.4-2.3 10.2-5.5 14.3-9.7 4-4.1 7.2-9 9.4-14.3 2.3-5.5 3.4-11.3 3.4-17.3v-.3c0-5.9-1.1-11.7-3.3-17.2-2.2-5.2-5.3-10-9.3-14.1zm54.8-6.5c-3 2.2-5.7 4.8-8 7.7-2.3 3-4.3 6.3-5.8 9.8v-22.4h-12.8v85.8h12.8v-34.2c-.1-5.8.8-11.5 2.7-17 1.6-4.6 4.1-8.8 7.3-12.4 3-3.3 6.8-5.8 10.9-7.5 4.2-1.7 8.7-2.5 13.2-2.5h1v-13.8c-3.9-.1-7.7.4-11.5 1.5-3.5 1.3-6.8 2.9-9.8 5m100.1 34c0 4.1-.9 8.1-2.7 11.8-1.7 3.5-4.1 6.6-7.1 9.2-2.9 2.6-6.3 4.6-10 6-3.8 1.4-7.8 2.1-11.8 2.1-3.9 0-7.8-.7-11.5-2.2-3.5-1.4-6.7-3.4-9.5-6s-5-5.7-6.5-9.2c-1.6-3.7-2.4-7.8-2.4-11.9v-.3c-.1-4.1.7-8.2 2.3-12 1.5-3.4 3.7-6.5 6.4-9 2.8-2.5 6-4.5 9.5-5.8 3.7-1.4 7.6-2.1 11.5-2.1 4 0 8 .7 11.8 2.1 3.7 1.3 7.1 3.3 10 5.9 2.9 2.6 5.3 5.7 7.1 9.1 1.8 3.7 2.8 7.8 2.7 12v.3h.2zm-.5-23.4c-1.8-2.4-3.8-4.6-6-6.6-2.2-2.1-4.7-4-7.4-5.5-2.9-1.6-5.9-2.9-9.1-3.7-8.6-2.3-17.7-1.8-26 1.4-4.8 1.8-9.2 4.6-13 8.1-3.8 3.6-6.9 7.9-9 12.7-2.3 5.3-3.5 11.1-3.4 16.9v.3c-.2 11.1 4.3 21.8 12.4 29.3 7.6 7 17.6 10.9 27.9 10.9 7.9 0 14.5-1.8 19.9-5.3 5.3-3.4 10-7.7 13.8-12.8v10.1c0 10.1-2.8 17.7-8.5 22.8-5.6 5.1-13.2 7.7-22.7 7.7-5.9 0-11.8-.9-17.4-2.8-5.6-2-10.8-4.7-15.6-8.1l-5.8 10c5.6 3.9 11.9 7 18.4 9 6.7 2 13.6 3 20.6 3 6.3.1 12.6-.9 18.6-2.8 5.3-1.7 10.1-4.7 14.1-8.6 3.6-3.6 6.4-8 8.1-12.9 2-5.6 2.9-11.6 2.8-17.5v-71h-12.8l.1 15.4zM15.1 221.5c-7.8 0-14.1 6.3-14.1 14.1s6.3 14.1 14.1 14.1 14.1-6.3 14.1-14.1-6.3-14.1-14.1-14.1m300.1 0c-7.8 0-14.1 6.3-14.1 14.1s6.3 14.1 14.1 14.1 14.1-6.3 14.1-14.1-6.3-14.1-14.1-14.1m182.1 28.2l-23.2-36.4-8.8 9.3v27.1H440V128.5h25.2v64.6l29.5-32.4H525l-33.9 35 35 54h-28.8zM459.1 3.1c-77.3 0-139.9 62.6-139.9 139.8 0 31 10.3 61.2 29.3 85.7-2.1-5.7-3.1-11.7-3-17.8V161h25.1v44.4c0 14.2 2.5 21.1 14.1 21.1 11.2 0 14.5-7.1 14.5-21V161h24.7v50c0 26.5-15.3 38.8-39.5 38.8-7.9 0-14.8-1.4-20.5-4.2 56.6 52.5 145.2 49.2 197.7-7.4S610.8 93 554.2 40.5c-25.9-24.1-59.8-37.4-95.1-37.4z" fill-rule="evenodd" clip-rule="evenodd" fill="#fff"/></svg>