<svg version="1.1" id="Layer_1" xmlns="http://www.w3.org/2000/svg" x="0" y="0" viewBox="0 0 100 100" xml:space="preserve"><style>.st0{fill:#932279}.st8{fill:none;stroke:#fff;stroke-width:2.98}</style><path class="st0" d="M0 0h99.9v100H0z"/><g id="g12804"><g id="g12806"><path id="path12808" class="st0" d="M43.4 48l3 3-3 3h-21v9.9l-12.7-13 12.8-12.6v9.6s20.9 0 20.9.1z"/></g></g><g id="g12770"><g id="g12772"><path id="path12774" d="M52.9 44.5l-3 3-3-3v-21h-9.8l12.8-12.8 12.6 12.8h-9.7v21z" fill="#efa724"/></g></g><g id="g12782"><path id="path12784" d="M56.4 54l-3-3 3-3h21v-9.8L90.1 51 77.3 63.6V54H56.4z" fill="#262577"/></g><g id="g12792"><g id="g12794"><path id="path12796" d="M46.9 57.4l3-3 3 3v20.9h9.9l-13 12.9-12.6-12.8h9.6l.1-21z" fill="#9ccd2a"/></g></g><path id="rect12744" d="M21.7 22.8h25.5v25.5H21.7V22.8z" fill="#9ccd2a" stroke="#fff" stroke-width="2.98"/><path id="rect12746" d="M52.6 22.8h25.5v25.5H52.6V22.8z" fill="#932279" stroke="#fff" stroke-width="2.98"/><path id="rect12748" d="M52.6 53.7h25.5v25.4H52.6V53.7z" fill="#efa724" stroke="#fff" stroke-width="2.98"/><path id="rect12750" d="M21.7 53.7h25.5v25.4H21.7V53.7z" fill="#262577" stroke="#fff" stroke-width="2.98"/><path id="rect12760" class="st8" d="M10 51l18-18 18 18-18 18-18-18z"/><path id="rect12762" class="st8" d="M31.9 29.1l18-18 18 18-18 18-18-18z"/><path id="rect12764" class="st8" d="M53.8 51l18-18 18 18-18 18-18-18z"/><path id="rect12766" class="st8" d="M31.9 72.8l18-18 18 18-18 18-18-18z"/><circle cx="49.8" cy="50.8" r="3.6" fill="#fff"/></svg>