<svg version="1.1" id="Layer_1" xmlns="http://www.w3.org/2000/svg" x="0" y="0" viewBox="0 0 100 100" xml:space="preserve"><style>.st1{fill:#fff}</style><path fill="#a80030" d="M0 0h100v100H0z"/><path class="st1" d="M54.9 54.7c-1.1 0 .2.6 1.7.8.4-.3.8-.6 1.1-1-.9.2-1.8.2-2.8.2m6.1-1.5c.7-.9 1.1-1.9 1.3-3-.2.7-.5 1.4-.9 2.1-2.1 1.3-.2-.8 0-1.6-2.3 2.8-.3 1.7-.4 2.5m2.2-5.9c.1-2-.4-1.4-.6-.6.2.1.4 1.5.6.6M50.6 19.5c.6.1 1.3.2 1.2.3.7-.1.9-.2-1.2-.3m1.2.4l-.4.1.4-.1"/><path class="st1" d="M70.6 48.1c.1 1.8-.5 2.7-1.1 4.3l-1 .5c-.8 1.5.1 1-.5 2.2-1.2 1.1-3.8 3.5-4.6 3.7-.6 0 .4-.7.5-1-1.7 1.2-1.3 1.7-3.9 2.4V60c-6.3 3-15-2.9-14.9-10.9-.1.5-.2.4-.3.6-.4-4.2 1.9-8.2 5.7-10 3.5-1.8 7.7-1.2 10.6 1.4-1.8-2.4-4.7-3.8-7.7-3.7-3.3 0-6.5 2.2-7.5 4.5-1.7 1.1-1.9 4.2-2.7 4.7-1 7.4 1.9 10.6 6.8 14.4.8.5.2.6.3 1-1.7-.8-3.1-1.9-4.3-3.3.6 1 1.4 1.8 2.3 2.6-1.5-.5-3.6-3.7-4.2-3.8 2.6 4.7 10.7 8.3 15 6.5-2.2.2-4.5-.1-6.6-.8-.9-.5-2.2-1.5-2-1.6 5.8 2.2 11.7 1.6 16.7-2.4 1.3-1 2.7-2.7 3.1-2.7-.6.9.1.4-.4 1.2 1.3-2-.6-.8 1.3-3.5l.7 1c-.3-1.7 2.1-3.8 1.9-6.4.5-.8.6.9 0 2.8.8-2.1.2-2.4.4-4.2.3.6.5 1.2.7 1.8-.5-2 .5-3.4.8-4.6-.3-.1-.8.9-.9-1.5 0-1 .3-.5.4-.8-.6-.7-.9-1.6-1-2.5.2-.4.6.9 1 1-.3-1-.5-2-.6-3.1-.9-2-.3.3-1.1-.8-1-3.1.8-.7 1-2.1 1.3 2.2 2.2 4.5 2.8 7-.3-1.7-.8-3.4-1.4-5 .5.2-.7-3.5.6-1.1-1.4-5.2-6.1-10.2-10.4-12.5.5.5 1.2 1.1 1 1.2-2.1-1.3-1.8-1.4-2.1-1.9-1.7-.7-1.9.1-3 0-3.3-1.7-3.9-1.6-7-2.6l.1.6c-2.2-.7-2.5.3-4.9 0-.1-.1.8-.4 1.5-.5-2.1.3-2-.4-4.1.1.5-.3 1-.6 1.6-.9-1.7.1-4.1 1-3.4.2-2.8 1.2-7.8 3-10.6 5.6l-.1-.6C33.6 25.9 29.3 29 29 31h-.3c-.6 1.2-1.2 2.3-1.7 3.6-.9 1.5-1.3.6-1.1.8-1.4 2.8-2.5 5.8-3.3 8.8.5.8 0 4.7.2 7.9-.9 15.5 10.9 30.6 23.8 34.1 1.9.7 4.7.7 7.1.7-2.8-.8-3.2-.4-5.9-1.4-2-.9-2.4-2-3.8-3.2l.5 1c-2.7-1-1.6-1.2-3.8-1.9l.6-.8c-.9-.1-2.4-1.5-2.8-2.3h-1c-1.2-1.4-1.8-2.5-1.8-3.3l-.3.6c-.4-.6-4.3-5.4-2.3-4.3-.6-.4-1.1-.9-1.4-1.6l.4-.5c-1-1.3-1.8-2.9-1.8-3.4.3.5.7.8 1.2 1-2.5-6.2-2.6-.3-4.5-6.3h.4c-.3-.5-.5-1-.7-1.5l.2-1.7c-1.8-2.1-.5-8.8-.2-12.5.2-1.5 1.5-3.1 2.5-5.6l-.6-.1c1.2-2 6.6-8.2 9.2-7.9 1.2-1.5-.2 0-.5-.4 2.7-2.8 3.6-2 5.4-2.5 2-1.2-1.7.5-.8-.5 3.4-.9 2.4-2 6.8-2.4.5.3-1.1.4-1.5.8 2.8-1.4 9-1.1 13 .8 4.6 2.2 9.8 8.5 10 14.6l.2.1c-.1 2.4.4 5.2-.5 7.7l.7-1.3"/><path class="st1" d="M42.6 56.2l-.2.8c.6 1.1 1.4 2 2.3 2.9-.7-1.3-1.2-1.9-2.1-3.7m1.7 0c-.4-.5-.7-.9-.9-1.5.3.9.7 1.7 1.2 2.5l-.3-1m31.1-6.8l-.2.4c-.3 2.2-1 4.3-2 6.3 1.1-2.1 1.9-4.3 2.2-6.7M50.9 19c.9-.2 1.8-.3 2.7-.3-1.1.1-2.1.1-3.2.3h.5M24 33.2c.2 1.6-1.2 2.3.3 1.2.8-1.8-.3-.5-.3-1.2m-1.8 7.6c.2-.8.4-1.6.5-2.4-.9 1.3-.4 1.6-.5 2.4"/></svg>