<svg xmlns="http://www.w3.org/2000/svg" viewBox="0 0 100 100"><path d="M100 62.9V0H0v100h100V62.9z" fill="#072b61"/><path d="M66.7 10.9c-12.3 0-22.2 9.9-22.2 22.2v11.8H32.8c-12.2 0-22.1 10-22.1 22.2s10 22.1 22.2 22.1S55 79.2 55 67V55.2h11.8c12.2.3 22.4-9.5 22.6-21.7s-9.5-22.4-21.7-22.6h-1zm0 10.4c6.5 0 11.8 5.3 11.8 11.8s-5.3 11.8-11.8 11.8h-10c-.9 0-1.7-.8-1.7-1.7v-10c0-6.6 5.2-11.9 11.7-11.9zM32.8 55.2h10.1c.9 0 1.7.7 1.7 1.6V67c0 6.5-5.3 11.8-11.8 11.8S21 73.4 21 66.9s5.3-11.7 11.8-11.7zm42.5 27.2v.5h.9v2.6h.5v-2.6h.9v-.5h-2.3zm2.8 0v3.1h.5v-2l.1.3.8 1.8.7-1.8.2-.4v2.1h.5v-3.2h-.5l-.7 1.7-.2.4-.1-.4-.7-1.6h-.6z" fill="#0a57a4"/><path d="M44.5 44.8V33c0-12.3 9.9-22.2 22.2-22.2 1.7 0 3.3.2 4.9.7 2.5.7 4.6 2.7 4.6 5.1.1 2.7-2.1 4.9-4.8 5H71c-1.5 0-2-.3-4.2-.3C60.2 21.3 55 26.6 55 33v10.2c0 .9.7 1.6 1.6 1.6h7.7c2.9 0 5.2 2.3 5.2 5.2s-2.3 5.2-5.2 5.2H55V67c0 12.3-9.9 22.2-22.2 22.2-1.7 0-3.3-.2-4.9-.7-2.5-.7-4.6-2.7-4.6-5.1-.1-2.7 2.1-4.9 4.8-5h.4c1.5 0 2 .3 4.2.3 6.5 0 11.7-5.2 11.7-11.7V56.8c0-.9-.7-1.7-1.7-1.7H35c-2.9 0-5.2-2.3-5.1-5.2 0-2.9 2.3-5.2 5.2-5.1h9.4" fill="#fff"/></svg>