<svg xmlns="http://www.w3.org/2000/svg" viewBox="0 0 100 100"><path fill="#dd4814" d="M0 0h100v100H0z"/><path d="M24 50c0 3.6-2.9 6.4-6.4 6.4s-6.4-2.9-6.4-6.4c0-3.6 2.9-6.4 6.4-6.4S24 46.4 24 50zm36.6 31.3c1.8 3.1 5.7 4.1 8.8 2.4 3.1-1.8 4.1-5.7 2.4-8.8-1.8-3.1-5.7-4.1-8.8-2.4-3.1 1.8-4.1 5.7-2.4 8.8zm11.2-56.1c1.8-3.1.7-7-2.3-8.8-3.1-1.8-7-.7-8.8 2.3-1.8 3.1-.7 7 2.3 8.8 3.1 1.8 7 .8 8.8-2.3zM50 31.7c9.5 0 17.4 7.3 18.3 16.7l9.3-.2c-.4-6.7-3.3-13.1-8.1-17.8-4.6 1.8-9.9-.4-11.7-5.1-.2-.6-.4-1.3-.5-1.9-6.5-1.8-13.4-1.1-19.5 1.9l4.5 8.1c2.4-1.1 5-1.7 7.7-1.7zM31.7 50c0-6 2.9-11.6 7.8-15l-4.8-8c-5.6 3.8-9.7 9.5-11.4 16 3.9 3.1 4.5 8.8 1.4 12.6-.4.5-.9 1-1.4 1.4 1.7 6.6 5.8 12.3 11.4 16l4.8-8c-4.9-3.4-7.8-9-7.8-15zM50 68.3c-2.7 0-5.3-.6-7.7-1.7l-4.5 8.1c6.1 3 13 3.7 19.5 1.9.8-4.9 5.4-8.3 10.3-7.5.7.1 1.3.3 1.9.5 4.8-4.7 7.7-11.1 8.1-17.8l-9.3-.2c-.9 9.5-8.8 16.8-18.3 16.7z" fill="#fff"/></svg>