<svg xmlns="http://www.w3.org/2000/svg" viewBox="0 0 100 100"><path fill="#ff6c1a" d="M0 0h100v100H0z"/><path d="M39.1 73.8c.4-1.6.8-3.1 1.2-4.6L50.8 30c.5-2.4 2.6-4 5-3.9h12.1c7.3 0 13.8 4.4 16.5 11.2 3.3 8.1-.6 19.4-9.3 23.3-2.1 1-4.5 1.5-6.8 1.5H57.2c.1-.5.2-.9.3-1.4.6-2.1 1.1-4.3 1.7-6.4.6-2.3 2.6-3.8 5-3.8h3.5c3.5-.1 6.3-3 6.2-6.6-.1-3.5-3-6.3-6.6-6.2-2.1 0-4.1.1-6.2.1-.5 0-.5.4-.6.7l-5.4 20.1c-1 3.8-2.1 7.7-3.1 11.5-.6 2.2-2.6 3.8-4.9 3.7h-8zm6.5-35.9c-.7 2.8-1.4 5.4-2.2 8.1-.6 2.1-2.6 3.5-4.8 3.5h-6.3c-3.5.1-6.3 3-6.2 6.6.1 3 2.3 5.6 5.2 6.1 1 .1 2 .1 3.1.1h2.2c1.1.1 2 1.1 1.9 2.2 0 .1 0 .2-.1.3-.7 2.9-1.5 5.7-2.3 8.5 0 .2-.3.4-.5.4-2.2 0-4.3 0-6.5-.2-4.2-.6-8-2.7-10.7-6-2.3-2.6-3.7-5.8-4-9.3-.9-8.3 3.7-17.9 14.4-20.1 1.2-.2 2.4-.3 3.6-.3h12.4c.3.1.5.1.8.1z" fill="#fff"/></svg>